<?xml version="1.0" standalone="no"?>
<!DOCTYPE svg PUBLIC "-//W3C//DTD SVG 20010904//EN"
 "http://www.w3.org/TR/2001/REC-SVG-20010904/DTD/svg10.dtd">
<svg version="1.0" xmlns="http://www.w3.org/2000/svg"
 width="383.000000pt" height="383.000000pt" viewBox="0 0 383.000000 383.000000"
 preserveAspectRatio="xMidYMid meet">
<metadata>
Created by potrace 1.11, written by Peter Selinger 2001-2013
</metadata>
<g transform="translate(0.000000,383.000000) scale(0.100000,-0.100000)"
fill="#000000" stroke="none">
<path d="M825 3122 l-41 -3 1 -101 0 -102 72 -21 c228 -70 345 -263 352 -582
l1 -53 110 0 110 0 0 295 0 295 815 0 815 0 0 135 c0 101 -3 135 -12 136 -50
2 -2192 3 -2223 1z"/>
<path d="M1280 1765 c-88 -20 -214 -84 -276 -142 -165 -154 -241 -392 -211
-668 40 -375 341 -625 747 -620 l45 0 3 138 3 137 -43 1 c-157 3 -297 53 -393
140 -46 42 -93 117 -112 176 -17 57 -19 183 -3 244 42 161 161 281 308 309 54
11 173 9 222 -3 160 -39 269 -134 441 -382 32 -48 139 -215 171 -269 46 -78
137 -195 203 -261 167 -169 361 -258 628 -289 l47 -6 0 745 0 745 -120 0 -120
0 0 -584 0 -584 -42 10 c-73 16 -140 60 -228 148 -90 90 -138 158 -260 360
-236 393 -378 541 -607 631 -95 38 -289 49 -403 24z"/>
</g>
</svg>
